 <svg version="1.0" xmlns="http://www.w3.org/2000/svg" width="700.000000pt" height="700.000000pt" viewBox="0 0 700.000000 700.000000" preserveAspectRatio="xMidYMid meet">
<metadata>
Created by potrace 1.12, written by Peter Selinger 2001-2015
</metadata>
<g transform="translate(0.000000,700.000000) scale(0.100000,-0.100000)" fill="#000000" stroke="none">
<path d="M3335 6475 c-18 -9 -66 -14 -122 -15 -50 0 -104 -5 -120 -11 -15 -7
-59 -15 -98 -19 -38 -4 -90 -12 -115 -18 -25 -6 -72 -16 -105 -23 -71 -13
-361 -106 -391 -124 -11 -7 -43 -20 -70 -28 -53 -16 -317 -148 -343 -171 -9
-7 -39 -25 -68 -40 -29 -14 -65 -37 -80 -51 -44 -39 -134 -109 -173 -132 -20
-12 -47 -34 -60 -48 -14 -15 -45 -41 -70 -57 -60 -41 -174 -152 -213 -208 -17
-25 -59 -75 -94 -113 -35 -37 -63 -71 -63 -76 0 -5 -16 -29 -36 -53 -43 -51
-164 -232 -164 -244 0 -5 -16 -32 -36 -59 -39 -55 -89 -153 -100 -200 -4 -16
-26 -66 -49 -110 -69 -131 -196 -552 -195 -646 0 -20 -7 -56 -15 -79 -9 -25
-15 -78 -15 -130 0 -52 -6 -105 -15 -130 -21 -59 -21 -291 0 -350 10 -27 15
-80 15 -146 0 -56 5 -115 11 -131 7 -15 15 -59 19 -98 15 -141 122 -494 195
-643 23 -48 48 -105 55 -127 16 -50 47 -111 75 -150 12 -16 32 -50 45 -74 28
-55 141 -223 181 -268 16 -19 29 -38 29 -43 0 -4 34 -45 75 -90 41 -45 75 -86
75 -92 0 -16 142 -158 175 -175 16 -9 55 -40 86 -70 146 -139 536 -387 688
-438 28 -9 75 -29 104 -44 102 -54 443 -157 597 -181 30 -4 68 -13 83 -19 16
-6 81 -11 145 -11 76 -1 131 -6 157 -15 55 -20 275 -20 330 0 26 10 81 15 157
15 64 0 129 5 145 11 15 6 53 15 83 19 156 23 496 128 630 195 47 23 103 48
125 55 51 17 111 47 150 75 17 12 50 32 73 44 58 29 244 155 262 176 7 9 27
23 43 32 17 8 61 44 98 79 38 35 73 64 78 64 17 0 139 119 162 158 12 21 50
66 85 102 35 36 81 90 103 120 69 94 188 273 206 310 10 19 28 49 40 65 28 37
52 87 72 145 8 25 34 84 58 132 74 150 178 493 195 643 4 39 12 83 19 98 6 16
11 74 11 130 0 63 6 117 15 142 20 55 20 264 0 329 -9 29 -15 89 -15 147 0 54
-5 110 -11 126 -7 15 -15 60 -19 98 -17 150 -124 502 -194 640 -23 44 -47 100
-55 125 -36 120 -268 477 -413 637 -38 41 -68 79 -68 85 0 16 -171 188 -204
205 -16 8 -50 34 -75 57 -25 24 -66 57 -91 74 -54 38 -91 66 -145 108 -91 70
-340 209 -435 241 -25 8 -70 28 -101 43 -68 33 -342 124 -424 139 -33 7 -80
17 -105 23 -25 6 -76 14 -115 18 -38 4 -83 12 -98 19 -16 6 -69 11 -118 11
-57 0 -103 5 -126 15 -47 20 -284 20 -328 0z m516 -381 c27 -9 64 -14 81 -11
81 13 488 -123 720 -239 91 -46 168 -84 171 -84 12 0 237 -157 272 -189 22
-21 56 -47 75 -59 39 -23 380 -365 380 -381 0 -6 13 -25 29 -43 60 -69 240
-355 256 -408 4 -14 27 -64 51 -111 44 -90 126 -318 151 -424 7 -33 18 -78 24
-100 5 -22 13 -74 18 -115 4 -41 13 -85 19 -97 19 -35 16 -614 -3 -678 -9 -27
-13 -56 -10 -63 8 -22 -52 -259 -108 -427 -27 -82 -76 -204 -109 -269 -33 -65
-63 -126 -68 -135 -49 -101 -86 -159 -195 -306 -25 -33 -62 -85 -84 -115 -52
-72 -317 -333 -405 -400 -159 -119 -414 -278 -481 -300 -22 -7 -66 -26 -98
-42 -75 -37 -405 -147 -477 -159 -30 -5 -89 -13 -130 -18 -41 -5 -88 -14 -103
-20 -41 -16 -631 -15 -660 1 -12 6 -56 15 -97 20 -41 4 -100 12 -130 17 -72
12 -407 124 -480 160 -31 16 -74 34 -96 41 -65 21 -292 164 -492 309 -71 51
-344 323 -388 386 -39 56 -89 123 -130 173 -38 47 -105 151 -127 197 -10 22
-22 47 -27 55 -76 139 -141 291 -195 456 -36 108 -65 209 -65 225 0 15 -5 40
-11 56 -6 15 -10 46 -10 68 -1 22 -7 62 -15 89 -21 75 -20 633 2 696 8 24 13
52 10 63 -13 52 119 494 195 647 25 52 50 106 54 120 11 36 128 231 194 323
31 42 71 99 88 125 42 60 313 332 378 379 28 20 66 51 85 69 131 121 519 325
780 411 224 74 300 93 367 94 32 0 74 6 93 13 26 10 114 14 343 15 259 1 316
-2 358 -15z"></path>
<path d="M5385 4594 c-27 -9 -57 -19 -65 -24 -22 -11 -26 -151 -5 -202 20 -50
20 -208 0 -274 -20 -66 -20 -257 0 -314 11 -30 15 -84 15 -185 0 -178 -2 -175
131 -175 146 0 178 30 146 133 -21 66 -21 112 -2 168 12 34 13 50 4 77 -8 25
-8 44 0 75 8 29 11 146 9 367 l-3 325 -40 19 c-51 25 -127 29 -190 10z"></path>
<path d="M1870 4120 c-14 -4 -54 -8 -90 -9 -45 -1 -78 -7 -105 -22 -22 -11
-61 -26 -86 -32 -40 -11 -61 -27 -136 -107 -60 -63 -94 -109 -103 -135 -7 -22
-21 -56 -31 -75 -11 -19 -19 -49 -19 -66 0 -17 -7 -53 -15 -80 -19 -61 -19
-127 -1 -185 20 -64 36 -138 40 -187 3 -27 19 -68 45 -110 22 -37 43 -75 47
-85 8 -22 171 -133 222 -151 21 -8 87 -14 151 -15 63 -1 131 -6 152 -12 32
-10 49 -7 135 21 92 31 105 39 181 109 55 50 87 88 94 111 6 19 16 40 20 46 5
6 20 44 34 84 21 63 25 92 25 200 0 70 5 141 11 158 9 27 6 47 -25 139 -57
172 -121 252 -283 357 -36 23 -62 31 -127 37 -44 4 -88 9 -96 12 -8 3 -26 1
-40 -3z m61 -216 c112 -42 194 -146 234 -294 28 -101 28 -131 6 -223 -36 -143
-91 -231 -186 -297 -104 -72 -177 -63 -284 36 -73 67 -125 152 -140 226 -5 24
-15 64 -22 90 -11 41 -11 54 4 101 9 30 17 62 17 71 0 25 40 114 73 163 50 76
124 125 227 152 2 0 35 -10 71 -25z"></path>
<path d="M2899 4058 l-104 -53 -22 -70 c-43 -137 -56 -194 -51 -232 7 -50 74
-193 91 -193 7 0 28 -11 47 -24 19 -12 51 -28 71 -35 20 -6 53 -20 74 -31 22
-11 48 -20 60 -20 22 -1 122 -32 153 -49 31 -16 62 -91 62 -147 0 -58 -18 -89
-57 -98 -16 -4 -46 -15 -68 -25 -100 -45 -96 -45 -180 -12 -42 17 -89 31 -105
31 -16 0 -41 5 -55 10 -39 15 -59 -1 -78 -63 -31 -98 -18 -146 46 -172 31 -12
70 -16 172 -14 78 1 151 -3 180 -11 48 -11 55 -10 155 24 108 38 113 41 211
141 40 41 63 73 70 100 6 22 15 54 20 71 15 49 11 160 -6 174 -8 6 -24 37 -35
68 -33 88 -92 139 -172 148 -24 3 -87 19 -141 37 -92 30 -102 36 -158 93 -70
74 -74 98 -26 149 33 37 96 58 167 57 48 0 149 -18 183 -31 41 -16 82 -13 99
7 14 15 26 71 31 141 4 52 -89 73 -334 78 l-196 4 -104 -53z"></path>
<path d="M3887 4092 c-15 -17 -17 -57 -17 -364 0 -282 3 -353 15 -388 8 -23
15 -72 15 -109 0 -50 6 -78 25 -116 13 -27 25 -56 25 -64 0 -15 150 -159 185
-178 13 -7 40 -12 62 -12 21 0 151 -1 288 -2 212 -1 256 1 289 15 21 9 55 16
76 16 74 0 70 -30 70 594 0 365 -4 564 -10 577 -10 17 -22 19 -118 19 -71 0
-112 -4 -120 -12 -9 -9 -12 -119 -12 -435 0 -470 3 -448 -69 -517 -53 -51
-109 -58 -207 -26 -56 18 -80 34 -126 79 -34 34 -59 68 -63 86 -3 17 -12 53
-20 81 -12 40 -15 123 -15 400 0 259 -3 353 -12 362 -8 8 -51 12 -128 12 -101
0 -119 -3 -133 -18z"></path>
<path d="M5351 3200 c-45 -19 -50 -37 -51 -176 0 -170 -6 -164 162 -164 108 0
127 2 141 18 43 47 61 180 33 245 -7 18 -26 43 -40 57 -25 23 -37 25 -124 27
-53 2 -108 -2 -121 -7z"></path>
</g>
</svg>